# This file uses centimeters as units for non-parametric coordinates.

mtllib Fall_A1.mtl
g default
v -10.000000 0.000000 10.000000
v 10.000000 0.000000 10.000000
v 5.864720 0.000000 3.844720
v 10.000000 0.000000 -10.000000
v -10.000000 0.000000 -10.000000
v -5.018339 0.000000 -4.783026
v -1.774400 0.000000 -7.208881
v 6.774670 0.000000 -2.000000
v 7.404431 0.000000 0.000000
v 6.000000 0.000000 3.267332
v 5.046950 0.000000 4.000000
v 5.350894 0.000000 4.000000
v 5.740178 0.000000 4.000000
v 0.000000 0.000000 7.147884
v 0.051860 0.000000 6.866500
v -0.668858 0.000000 6.000000
v -0.888524 0.000000 4.000000
v -2.000000 0.000000 3.665912
v -2.838282 0.000000 4.000000
v -6.044320 0.000000 3.941860
v -7.256240 0.000000 -0.163180
v -6.963240 0.000000 -2.631580
v 2.000000 0.000000 -7.139854
v 3.376380 0.000000 -6.579041
v 5.909480 0.000000 -4.863840
v 7.355380 0.000000 0.229420
v 7.242160 0.000000 0.218080
v 7.242160 0.000000 0.338860
v 5.838300 0.000000 3.705100
v 5.694900 0.000000 4.161720
v 4.880680 0.000000 4.119360
v 4.785920 0.000000 4.435820
v 4.802600 0.000000 4.904960
v 4.952680 0.000000 5.089940
v 4.785160 0.000000 5.222560
v 4.523380 0.000000 5.009660
v 4.188320 0.000000 4.866560
v 3.692700 0.000000 4.842120
v 3.298660 0.000000 4.983780
v 3.149720 0.000000 5.142340
v 3.152120 0.000000 5.392180
v 3.279440 0.000000 5.531520
v 3.457220 0.000000 5.651640
v 2.892660 0.000000 5.661240
v 2.589960 0.000000 5.733320
v 2.426600 0.000000 5.935120
v 2.431400 0.000000 6.170560
v 2.611600 0.000000 6.363620
v 3.009180 0.000000 6.481620
v 2.446400 0.000000 6.714000
v 2.123260 0.000000 5.506740
v 2.297540 0.000000 5.492220
v 2.598900 0.000000 5.345180
v 2.745940 0.000000 5.154560
v 2.720520 0.000000 4.943960
v 2.406460 0.000000 4.648060
v 2.175900 0.000000 4.517340
v 1.498760 0.000000 4.482860
v 1.026740 0.000000 4.671660
v 0.718120 0.000000 5.138220
v 0.748980 0.000000 5.365140
v 0.866980 0.000000 5.443200
v 1.738380 0.000000 5.492220
v 1.751100 0.000000 5.728220
v 1.553220 0.000000 5.690100
v 1.159260 0.000000 5.679221
v 0.935980 0.000000 5.788140
v 0.819780 0.000000 5.942440
v 0.816160 0.000000 6.165740
v 0.926900 0.000000 6.310980
v 1.237340 0.000000 6.445320
v 1.529620 0.000000 6.478000
v 1.555020 0.000000 6.968160
v 0.923260 0.000000 7.091600
v 0.269720 0.000000 7.146060
v 0.213440 0.000000 6.844720
v 0.347780 0.000000 6.835640
v 0.424020 0.000000 6.775720
v 0.511160 0.000000 6.657720
v 0.496640 0.000000 6.512480
v 0.393160 0.000000 6.343660
v 0.240660 0.000000 6.269221
v -0.233160 0.000000 6.842900
v -0.445560 0.000000 6.773900
v -0.574460 0.000000 6.632300
v -0.569000 0.000000 6.458020
v -0.387460 0.000000 6.303720
v -0.091560 0.000000 6.251060
v -0.362060 0.000000 7.153340
v -1.137240 0.000000 6.910060
v -1.119080 0.000000 6.421720
v -0.942980 0.000000 6.410820
v -0.777780 0.000000 6.350920
v -0.667040 0.000000 6.207500
v -0.890340 0.000000 5.808100
v -1.142680 0.000000 5.742760
v -1.681860 0.000000 5.726420
v -1.801680 0.000000 4.902220
v -1.327860 0.000000 4.902220
v -0.928460 0.000000 4.769680
v -0.706980 0.000000 4.517340
v -0.699720 0.000000 4.314020
v -1.184440 0.000000 3.767580
v -1.487620 0.000000 3.655020
v -2.522400 0.000000 3.793000
v -3.012560 0.000000 4.237760
v -3.063400 0.000000 4.488300
v -2.967180 0.000000 4.637160
v -2.900000 0.000000 4.662580
v -2.898200 0.000000 4.704340
v -3.139640 0.000000 4.704340
v -3.352040 0.000000 4.795100
v -3.640700 0.000000 5.165440
v -3.644320 0.000000 5.481340
v -3.629800 0.000000 5.543060
v -3.749620 0.000000 5.468621
v -3.900300 0.000000 5.432320
v -4.043720 0.000000 5.432320
v -4.472160 0.000000 5.593880
v -5.198321 0.000000 4.934900
v -5.163841 0.000000 4.629900
v -5.158381 0.000000 4.372120
v -5.254600 0.000000 4.163340
v -5.563220 0.000000 3.940040
v -7.399460 0.000000 -0.373520
v -6.795760 0.000000 -3.067040
v -6.864800 0.000000 -3.067540
v -6.781960 0.000000 -3.171080
v -6.704320 0.000000 -3.630080
v -6.642200 0.000000 -3.781920
v -6.597320 0.000000 -3.768120
v -6.549020 0.000000 -3.616280
v -6.569720 0.000000 -3.385040
v -6.497240 0.000000 -3.433360
v -6.493800 0.000000 -3.493760
v -6.395440 0.000000 -3.502380
v -2.409400 0.000000 -6.943140
v -2.787300 0.000000 -7.005260
v -3.025440 0.000000 -7.063920
v -2.971940 0.000000 -7.113981
v -2.751060 0.000000 -7.150200
v -1.864140 0.000000 -7.170920
v 1.799220 0.000000 -7.186441
v 2.325520 0.000000 -7.010440
v 2.451480 0.000000 -7.076001
v 2.555000 0.000000 -7.067380
v 3.281460 0.000000 -6.591120
v 6.551400 0.000000 -2.782820
v 6.504800 0.000000 -2.415280
v 6.511700 0.000000 -2.268620
v -2.932180 0.000000 6.000000
v -3.564020 0.000000 5.719361
v -3.576060 0.000000 5.623080
v -3.383500 0.000000 5.683260
v -2.965280 0.000000 5.704320
v -2.938200 0.000000 6.384301
v -3.284200 0.000000 6.269980
v -3.419600 0.000000 6.110501
v -3.675360 0.000000 6.056340
v -2.688466 0.000000 6.000000
v -2.059626 0.000000 6.000000
v -2.000000 0.000000 4.982204
v -2.000000 0.000000 4.909992
v -2.053600 0.000000 6.637040
v -2.604220 0.000000 6.480580
v -2.077680 0.000000 5.544860
v -2.053600 0.000000 5.075480
v -2.471840 0.000000 4.837780
v -2.318380 0.000000 5.054421
v -2.234140 0.000000 5.283080
v -2.234140 0.000000 5.529800
v -2.333420 0.000000 5.686260
v -2.745640 0.000000 5.719361
v -1.379500 0.000000 6.837881
v -1.562931 0.000000 6.783230
v -1.603660 0.000000 6.493460
v -1.612240 0.000000 6.276960
v -1.340760 0.000000 6.376620
v -1.352800 0.000000 6.627480
v 1.785823 0.000000 6.905312
v 1.970581 0.000000 6.855001
v 1.740380 0.000000 6.465580
v 1.911460 0.000000 6.443620
v 1.928720 0.000000 6.657080
v -2.938200 0.040000 6.384301
v -2.604220 0.040000 6.480580
v -2.688466 0.040000 6.000000
v -3.675360 0.040000 6.056340
v -4.043720 0.040000 5.432320
v -4.472160 0.040000 5.593880
v -0.699720 0.040000 4.314020
v -1.327860 0.040000 4.902220
v -0.928460 0.040000 4.769680
v 2.446400 0.040000 6.714000
v 1.928720 0.040000 6.657080
v 1.970581 0.040000 6.855001
v 4.523380 0.040000 5.009660
v 3.457220 0.040000 5.651640
v 4.785160 0.040000 5.222560
v 5.864720 0.040000 3.844720
v 10.000000 0.040000 10.000000
v 5.740178 0.040000 4.000000
v -5.198321 0.040000 4.934900
v -5.563220 0.040000 3.940040
v -6.044320 0.040000 3.941860
v -2.000000 0.040000 4.909992
v -2.000000 0.040000 3.665912
v -2.522400 0.040000 3.793000
v -0.888524 0.040000 4.000000
v -1.184440 0.040000 3.767580
v -1.801680 0.040000 4.902220
v 6.000000 0.040000 3.267332
v 5.838300 0.040000 3.705100
v -10.000000 0.040000 10.000000
v -7.256240 0.040000 -0.163180
v 7.404431 0.040000 0.000000
v 10.000000 0.040000 -10.000000
v -7.399460 0.040000 -0.373520
v -10.000000 0.040000 -10.000000
v -6.963240 0.040000 -2.631580
v 6.774670 0.040000 -2.000000
v 5.909480 0.040000 -4.863840
v 6.551400 0.040000 -2.782820
v -2.787300 0.040000 -7.005260
v -5.018339 0.040000 -4.783026
v -2.409400 0.040000 -6.943140
v 1.799220 0.040000 -7.186441
v 2.000000 0.040000 -7.139854
v 2.325520 0.040000 -7.010440
v 2.451480 0.040000 -7.076001
v 3.376380 0.040000 -6.579041
v -3.025440 0.040000 -7.063920
v -2.971940 0.040000 -7.113981
v 0.269720 0.040000 7.146060
v 0.051860 0.040000 6.866500
v 0.000000 0.040000 7.147884
v -0.668858 0.040000 6.000000
v -0.890340 0.040000 5.808100
v -0.942980 0.040000 6.410820
v -0.777780 0.040000 6.350920
v -1.137240 0.040000 6.910060
v -1.352800 0.040000 6.627480
v -1.379500 0.040000 6.837881
v 1.785823 0.040000 6.905312
v -6.864800 0.040000 -3.067540
v -6.795760 0.040000 -3.067040
v -6.493800 0.040000 -3.493760
v -6.395440 0.040000 -3.502380
v -6.497240 0.040000 -3.433360
v -6.569720 0.040000 -3.385040
v -6.549020 0.040000 -3.616280
v -6.597320 0.040000 -3.768120
v -6.642200 0.040000 -3.781920
v -6.781960 0.040000 -3.171080
v -6.704320 0.040000 -3.630080
v -2.751060 0.040000 -7.150200
v -1.864140 0.040000 -7.170920
v -1.774400 0.040000 -7.208881
v 2.555000 0.040000 -7.067380
v 3.281460 0.040000 -6.591120
v 6.504800 0.040000 -2.415280
v 6.511700 0.040000 -2.268620
v 7.355380 0.040000 0.229420
v 7.242160 0.040000 0.338860
v 7.242160 0.040000 0.218080
v 4.952680 0.040000 5.089940
v 5.350894 0.040000 4.000000
v 4.802600 0.040000 4.904960
v 5.694900 0.040000 4.161720
v 5.046950 0.040000 4.000000
v 4.785920 0.040000 4.435820
v 4.880680 0.040000 4.119360
v 2.431400 0.040000 6.170560
v 2.892660 0.040000 5.661240
v 2.589960 0.040000 5.733320
v 3.009180 0.040000 6.481620
v 4.188320 0.040000 4.866560
v 3.279440 0.040000 5.531520
v 3.692700 0.040000 4.842120
v 3.152120 0.040000 5.392180
v 3.298660 0.040000 4.983780
v 3.149720 0.040000 5.142340
v 2.426600 0.040000 5.935120
v 2.611600 0.040000 6.363620
v 1.529620 0.040000 6.478000
v 1.555020 0.040000 6.968160
v 1.740380 0.040000 6.465580
v 1.751100 0.040000 5.728220
v 2.123260 0.040000 5.506740
v 1.738380 0.040000 5.492220
v 0.748980 0.040000 5.365140
v 1.026740 0.040000 4.671660
v 0.718120 0.040000 5.138220
v 1.911460 0.040000 6.443620
v 1.553220 0.040000 5.690100
v 1.237340 0.040000 6.445320
v 1.159260 0.040000 5.679221
v 0.926900 0.040000 6.310980
v 0.935980 0.040000 5.788140
v 0.816160 0.040000 6.165740
v 0.819780 0.040000 5.942440
v 0.866980 0.040000 5.443200
v 1.498760 0.040000 4.482860
v 2.175900 0.040000 4.517340
v 2.406460 0.040000 4.648060
v 2.297540 0.040000 5.492220
v 2.720520 0.040000 4.943960
v 2.598900 0.040000 5.345180
v 2.745940 0.040000 5.154560
v 0.923260 0.040000 7.091600
v -0.445560 0.040000 6.773900
v -0.387460 0.040000 6.303720
v -0.569000 0.040000 6.458020
v 0.213440 0.040000 6.844720
v -0.574460 0.040000 6.632300
v -0.233160 0.040000 6.842900
v -0.091560 0.040000 6.251060
v 0.240660 0.040000 6.269221
v 0.393160 0.040000 6.343660
v 0.347780 0.040000 6.835640
v 0.496640 0.040000 6.512480
v 0.424020 0.040000 6.775720
v 0.511160 0.040000 6.657720
v -0.362060 0.040000 7.153340
v -1.562931 0.040000 6.783230
v -2.053600 0.040000 6.637040
v -1.119080 0.040000 6.421720
v -1.340760 0.040000 6.376620
v -2.000000 0.040000 4.982204
v -1.142680 0.040000 5.742760
v -1.612240 0.040000 6.276960
v -1.681860 0.026667 5.739754
v -2.077680 0.040004 5.544860
v -2.059626 0.026667 6.013333
v -1.603660 0.040004 6.493460
v -2.059626 0.000000 6.040000
v -0.667040 0.040004 6.207500
v -2.053600 0.040000 5.075480
v -0.706980 0.040000 4.517340
v -1.487620 0.040000 3.655020
v -2.471840 0.040000 4.837780
v -2.838282 0.040000 4.000000
v -2.900000 0.040000 4.662580
v -2.967180 0.040000 4.637160
v -2.234140 0.040000 5.283080
v -2.745640 0.040000 5.719361
v -2.333420 0.040000 5.686260
v -2.898200 0.040000 4.704340
v -3.012560 0.040000 4.237760
v -3.063400 0.040000 4.488300
v -2.932180 0.040000 6.000000
v -2.234140 0.040000 5.529800
v -2.318380 0.040000 5.054421
v -2.965280 0.040000 5.704320
v -3.383500 0.040000 5.683260
v -3.576060 0.040000 5.623080
v -3.629800 0.040000 5.543060
v -3.644320 0.040000 5.481340
v -3.139640 0.040000 4.704340
v -3.640700 0.040000 5.165440
v -3.352040 0.040000 4.795100
v -3.284200 0.040000 6.269980
v -3.419600 0.040000 6.110501
v -3.900300 0.040000 5.432320
v -3.564020 0.040000 5.719361
v -3.749620 0.040000 5.468621
v -5.254600 0.040000 4.163340
v -5.163841 0.040000 4.629900
v -5.158381 0.040000 4.372120
vt 0.362880 0.196910
vt 0.378717 0.192455
vt 0.374583 0.215177
vt 0.327887 0.212208
vt 0.310260 0.241632
vt 0.290030 0.233854
vt 0.468201 0.295589
vt 0.438649 0.267555
vt 0.457513 0.273951
vt 0.617852 0.182953
vt 0.593331 0.185489
vt 0.595373 0.176133
vt 0.715640 0.264261
vt 0.665372 0.233547
vt 0.728096 0.254264
vt 0.976395 0.029728
vt 0.778774 0.319812
vt 0.772926 0.312424
vt 0.255457 0.264823
vt 0.237880 0.311802
vt 0.215109 0.311568
vt 0.406836 0.266981
vt 0.406456 0.325868
vt 0.381768 0.319692
vt 0.459168 0.310395
vt 0.445090 0.321305
vt 0.416221 0.267410
vt 0.785000 0.347183
vt 0.777480 0.326412
vt 0.029728 0.023605
vt 0.156488 0.505502
vt 0.850476 0.502267
vt 0.970272 0.976395
vt 0.023605 0.970272
vt 0.149645 0.515415
vt 0.169601 0.622430
vt 0.820056 0.596741
vt 0.778226 0.732031
vt 0.809248 0.633726
vt 0.365923 0.830729
vt 0.261001 0.724860
vt 0.383830 0.827904
vt 0.582963 0.840709
vt 0.592481 0.838565
vt 0.607929 0.832539
vt 0.613871 0.835681
vt 0.657801 0.812442
vt 0.354633 0.833433
vt 0.357150 0.835819
vt 0.514954 0.161836
vt 0.504557 0.175002
vt 0.502188 0.161667
vt 0.470178 0.215795
vt 0.459635 0.224811
vt 0.457328 0.196266
vt 0.465129 0.199152
vt 0.448286 0.172576
vt 0.437996 0.185885
vt 0.436797 0.175918
vt 0.586643 0.173695
vt 0.174127 0.643095
vt 0.177395 0.643093
vt 0.191557 0.663383
vt 0.196210 0.663821
vt 0.191413 0.660523
vt 0.187997 0.658214
vt 0.188906 0.669166
vt 0.186573 0.676338
vt 0.184445 0.676978
vt 0.178016 0.648022
vt 0.181551 0.669771
vt 0.367594 0.837601
vt 0.409569 0.838853
vt 0.413805 0.840677
vt 0.618773 0.835305
vt 0.653305 0.812984
vt 0.807155 0.616315
vt 0.807526 0.609375
vt 0.848225 0.491393
vt 0.842899 0.486178
vt 0.842862 0.491895
vt 0.735985 0.260592
vt 0.754500 0.312305
vt 0.728825 0.269302
vt 0.770833 0.304755
vt 0.740114 0.312212
vt 0.727892 0.291503
vt 0.732280 0.306511
vt 0.616975 0.208671
vt 0.638652 0.232920
vt 0.624347 0.229416
vt 0.644419 0.194124
vt 0.699737 0.270932
vt 0.656920 0.239179
vt 0.676270 0.271937
vt 0.650851 0.245735
vt 0.657662 0.265111
vt 0.650661 0.257560
vt 0.616676 0.219814
vt 0.625564 0.199588
vt 0.574385 0.193843
vt 0.575737 0.170650
vt 0.584357 0.194495
vt 0.584639 0.229400
vt 0.602187 0.239998
vt 0.583965 0.240567
vt 0.537094 0.246279
vt 0.550029 0.279189
vt 0.535564 0.257011
vt 0.592448 0.195587
vt 0.575261 0.231144
vt 0.560541 0.195300
vt 0.556610 0.231538
vt 0.545805 0.201564
vt 0.546075 0.226314
vt 0.540519 0.208405
vt 0.540622 0.218975
vt 0.542703 0.242620
vt 0.572314 0.288270
vt 0.604375 0.286845
vt 0.615329 0.280728
vt 0.610432 0.240738
vt 0.630285 0.266819
vt 0.624651 0.247790
vt 0.631553 0.256858
vt 0.545872 0.164614
vt 0.480984 0.179232
vt 0.483590 0.201505
vt 0.475044 0.194146
vt 0.512198 0.176082
vt 0.474839 0.185895
vt 0.491059 0.176031
vt 0.497580 0.204088
vt 0.513310 0.203331
vt 0.520552 0.199854
vt 0.518554 0.176553
vt 0.525501 0.191895
vt 0.522145 0.179412
vt 0.526233 0.185024
vt 0.485052 0.161298
vt 0.428098 0.178449
vt 0.404828 0.185218
vt 0.448996 0.195696
vt 0.438489 0.197763
vt 0.406859 0.263563
vt 0.447671 0.227826
vt 0.425609 0.202397
vt 0.422149 0.227803
vt 0.403354 0.236907
vt 0.404352 0.214738
vt 0.426081 0.192152
vt 0.404360 0.213476
vt 0.470327 0.205974
vt 0.404350 0.259132
vt 0.467919 0.285963
vt 0.430705 0.326540
vt 0.384481 0.270255
vt 0.366879 0.309798
vt 0.364161 0.278417
vt 0.360973 0.279599
vt 0.395868 0.249250
vt 0.371790 0.228443
vt 0.391292 0.230136
vt 0.364259 0.276441
vt 0.358703 0.298490
vt 0.356373 0.286616
vt 0.363047 0.215102
vt 0.395944 0.237572
vt 0.391811 0.260048
vt 0.361390 0.229088
vt 0.341587 0.229957
vt 0.332455 0.232746
vt 0.329886 0.236517
vt 0.329180 0.239434
vt 0.352830 0.276367
vt 0.329255 0.254388
vt 0.342805 0.272006
vt 0.346467 0.202216
vt 0.340009 0.209723
vt 0.317049 0.241676
vt 0.333054 0.228192
vt 0.324192 0.240004
vt 0.252557 0.301327
vt 0.256996 0.279270
vt 0.257175 0.291474
vt 0.362880 0.196910
vt 0.374583 0.215177
vt 0.378717 0.192455
vt 0.327887 0.212208
vt 0.290030 0.233854
vt 0.310260 0.241632
vt 0.468201 0.295589
vt 0.457513 0.273951
vt 0.438649 0.267555
vt 0.617852 0.182953
vt 0.595373 0.176133
vt 0.593331 0.185489
vt 0.715640 0.264261
vt 0.728096 0.254264
vt 0.665372 0.233547
vt 0.976395 0.029728
vt 0.772926 0.312424
vt 0.778774 0.319812
vt 0.255457 0.264823
vt 0.215109 0.311568
vt 0.237880 0.311802
vt 0.406836 0.266981
vt 0.381768 0.319692
vt 0.406456 0.325868
vt 0.459168 0.310395
vt 0.416221 0.267410
vt 0.445090 0.321305
vt 0.785000 0.347183
vt 0.777480 0.326412
vt 0.029728 0.023605
vt 0.156488 0.505502
vt 0.850476 0.502267
vt 0.970272 0.976395
vt 0.023605 0.970272
vt 0.169601 0.622430
vt 0.149645 0.515415
vt 0.820056 0.596741
vt 0.778226 0.732031
vt 0.809248 0.633726
vt 0.365923 0.830729
vt 0.383830 0.827904
vt 0.261001 0.724860
vt 0.592481 0.838565
vt 0.582963 0.840709
vt 0.613871 0.835681
vt 0.607929 0.832539
vt 0.657801 0.812442
vt 0.357150 0.835819
vt 0.354633 0.833433
vt 0.514954 0.161836
vt 0.502188 0.161667
vt 0.504557 0.175002
vt 0.470178 0.215795
vt 0.465129 0.199152
vt 0.457328 0.196266
vt 0.459635 0.224811
vt 0.448286 0.172576
vt 0.436797 0.175918
vt 0.437996 0.185885
vt 0.586643 0.173695
vt 0.174127 0.643095
vt 0.177395 0.643093
vt 0.196210 0.663821
vt 0.191557 0.663383
vt 0.191413 0.660523
vt 0.187997 0.658214
vt 0.188906 0.669166
vt 0.186573 0.676338
vt 0.184445 0.676978
vt 0.178016 0.648022
vt 0.181551 0.669771
vt 0.367594 0.837601
vt 0.409569 0.838853
vt 0.413805 0.840677
vt 0.618773 0.835305
vt 0.653305 0.812984
vt 0.807155 0.616315
vt 0.807526 0.609375
vt 0.848225 0.491393
vt 0.842899 0.486178
vt 0.842862 0.491895
vt 0.735985 0.260592
vt 0.728825 0.269302
vt 0.754500 0.312305
vt 0.770833 0.304755
vt 0.727892 0.291503
vt 0.740114 0.312212
vt 0.732280 0.306511
vt 0.616975 0.208671
vt 0.624347 0.229416
vt 0.638652 0.232920
vt 0.644419 0.194124
vt 0.699737 0.270932
vt 0.656920 0.239179
vt 0.650851 0.245735
vt 0.676270 0.271937
vt 0.650661 0.257560
vt 0.657662 0.265111
vt 0.616676 0.219814
vt 0.625564 0.199588
vt 0.575737 0.170650
vt 0.574385 0.193843
vt 0.584357 0.194495
vt 0.584639 0.229400
vt 0.583965 0.240567
vt 0.602187 0.239998
vt 0.537094 0.246279
vt 0.535564 0.257011
vt 0.550029 0.279189
vt 0.592448 0.195587
vt 0.560540 0.195300
vt 0.575261 0.231144
vt 0.545805 0.201564
vt 0.556610 0.231538
vt 0.540519 0.208405
vt 0.546075 0.226314
vt 0.540622 0.218975
vt 0.542703 0.242620
vt 0.572314 0.288270
vt 0.604375 0.286845
vt 0.615329 0.280728
vt 0.630285 0.266819
vt 0.610432 0.240738
vt 0.631553 0.256858
vt 0.624651 0.247790
vt 0.545872 0.164613
vt 0.480984 0.179232
vt 0.475044 0.194146
vt 0.483590 0.201505
vt 0.512198 0.176082
vt 0.474839 0.185895
vt 0.491059 0.176031
vt 0.497580 0.204088
vt 0.513310 0.203331
vt 0.520552 0.199854
vt 0.525501 0.191895
vt 0.518554 0.176553
vt 0.526233 0.185024
vt 0.522145 0.179412
vt 0.485052 0.161298
vt 0.404828 0.185218
vt 0.428098 0.178449
vt 0.448996 0.195696
vt 0.438489 0.197763
vt 0.406859 0.263563
vt 0.447671 0.227826
vt 0.425609 0.202397
vt 0.422145 0.228434
vt 0.404348 0.215369
vt 0.403354 0.236907
vt 0.426081 0.192152
vt 0.470327 0.205974
vt 0.404350 0.259132
vt 0.467919 0.285963
vt 0.430705 0.326540
vt 0.384481 0.270255
vt 0.366879 0.309798
vt 0.364161 0.278417
vt 0.360973 0.279599
vt 0.395868 0.249250
vt 0.391292 0.230136
vt 0.371790 0.228443
vt 0.364259 0.276441
vt 0.356373 0.286616
vt 0.358703 0.298490
vt 0.363047 0.215102
vt 0.395944 0.237572
vt 0.391811 0.260048
vt 0.361390 0.229088
vt 0.341587 0.229957
vt 0.332455 0.232746
vt 0.329886 0.236517
vt 0.329180 0.239434
vt 0.329255 0.254388
vt 0.352830 0.276367
vt 0.342805 0.272006
vt 0.346467 0.202216
vt 0.340009 0.209723
vt 0.317049 0.241676
vt 0.333054 0.228192
vt 0.324192 0.240004
vt 0.252557 0.301327
vt 0.256996 0.279270
vt 0.257175 0.291474
vn 0.000000 1.000000 -0.000000
vn 0.000000 1.000000 -0.000000
vn 0.000000 1.000000 -0.000000
vn 0.000000 1.000000 -0.000000
vn 0.000000 1.000000 -0.000000
vn 0.000000 1.000000 -0.000000
vn 0.000000 1.000000 -0.000000
vn 0.000000 1.000000 0.000000
vn 0.000000 1.000000 0.000000
vn 0.000000 1.000000 0.000000
vn 0.000000 1.000000 -0.000000
vn 0.000000 1.000000 0.000000
vn 0.000000 1.000000 0.000000
vn 0.000000 1.000000 -0.000000
vn 0.000000 1.000000 -0.000000
vn 0.000000 1.000000 0.000000
vn 0.000000 1.000000 -0.000000
vn 0.000000 1.000000 -0.000000
vn 0.000000 1.000000 0.000000
vn 0.000000 1.000000 0.000000
vn 0.000000 1.000000 0.000000
vn 0.000000 1.000000 0.000000
vn 0.000000 1.000000 0.000000
vn 0.000000 1.000000 0.000000
vn 0.000000 1.000000 -0.000000
vn 0.000000 1.000000 0.000000
vn 0.003688 0.999992 0.001583
vn 0.000000 1.000000 0.000000
vn 0.000000 1.000000 0.000000
vn 0.000000 1.000000 -0.000000
vn 0.000000 1.000000 0.000000
vn 0.000000 1.000000 0.000000
vn 0.000000 1.000000 -0.000000
vn 0.000000 1.000000 -0.000000
vn 0.000000 1.000000 0.000000
vn 0.000000 1.000000 0.000000
vn 0.000000 1.000000 0.000000
vn 0.000000 1.000000 -0.000000
vn 0.000000 1.000000 0.000000
vn 0.000000 1.000000 -0.000000
vn 0.000000 1.000000 -0.000000
vn 0.000000 1.000000 0.000000
vn 0.000000 1.000000 0.000000
vn 0.000000 1.000000 0.000000
vn 0.000000 1.000000 0.000000
vn 0.000000 1.000000 -0.000000
vn 0.000000 1.000000 0.000000
vn 0.000000 1.000000 0.000000
vn 0.000000 1.000000 -0.000000
vn 0.000000 1.000000 0.000000
vn 0.000000 1.000000 -0.000000
vn 0.000000 1.000000 0.000000
vn -0.000001 1.000000 -0.000000
vn 0.000000 1.000000 0.000000
vn 0.000000 1.000000 0.000000
vn -0.000001 1.000000 -0.000000
vn 0.000000 1.000000 -0.000000
vn 0.000000 1.000000 -0.000000
vn 0.000000 1.000000 -0.000000
vn 0.000000 1.000000 0.000000
vn 0.000000 1.000000 0.000000
vn 0.000000 1.000000 0.000000
vn 0.000000 1.000000 0.000000
vn 0.000000 1.000000 0.000000
vn 0.000000 1.000000 0.000000
vn 0.000000 1.000000 0.000000
vn 0.000000 1.000000 0.000000
vn 0.000000 1.000000 0.000000
vn 0.000000 1.000000 -0.000000
vn 0.000000 1.000000 0.000000
vn 0.000000 1.000000 0.000000
vn 0.000000 1.000000 0.000000
vn 0.000000 1.000000 -0.000000
vn 0.000000 1.000000 -0.000000
vn 0.000000 1.000000 -0.000000
vn 0.000000 1.000000 0.000000
vn 0.000000 1.000000 0.000000
vn 0.000000 1.000000 0.000000
vn 0.000000 1.000000 0.000000
vn 0.000000 1.000000 0.000000
vn 0.000000 1.000000 0.000000
vn 0.000000 1.000000 -0.000000
vn 0.000000 1.000000 0.000000
vn 0.000000 1.000000 0.000000
vn 0.000000 1.000000 0.000000
vn 0.000000 1.000000 -0.000000
vn 0.000000 1.000000 0.000000
vn 0.000000 1.000000 -0.000000
vn 0.000000 1.000000 0.000000
vn 0.000000 1.000000 0.000000
vn 0.000000 1.000000 0.000000
vn 0.000000 1.000000 0.000000
vn 0.000000 1.000000 -0.000000
vn 0.000000 1.000000 0.000000
vn 0.000000 1.000000 0.000000
vn 0.000000 1.000000 0.000000
vn 0.000000 1.000000 -0.000000
vn 0.000000 1.000000 0.000000
vn 0.000000 1.000000 0.000000
vn 0.000000 1.000000 0.000000
vn 0.000000 1.000000 0.000000
vn 0.000000 1.000000 -0.000000
vn 0.000000 1.000000 -0.000000
vn 0.000000 1.000000 0.000000
vn 0.000000 1.000000 0.000000
vn 0.000000 1.000000 0.000000
vn 0.000000 1.000000 -0.000000
vn 0.000000 1.000000 -0.000000
vn 0.000000 1.000000 -0.000000
vn 0.000000 1.000000 0.000000
vn 0.000000 1.000000 -0.000000
vn 0.000000 1.000000 0.000000
vn 0.000000 1.000000 -0.000000
vn 0.000000 1.000000 0.000000
vn 0.000000 1.000000 0.000000
vn 0.000000 1.000000 0.000000
vn 0.000000 1.000000 0.000000
vn 0.000000 1.000000 0.000000
vn 0.000000 1.000000 0.000000
vn 0.000000 1.000000 0.000000
vn 0.000000 1.000000 0.000000
vn 0.000000 1.000000 0.000000
vn 0.000000 1.000000 -0.000000
vn 0.000000 1.000000 -0.000000
vn 0.000000 1.000000 0.000000
vn 0.000000 1.000000 -0.000000
vn 0.000000 1.000000 0.000000
vn 0.000000 1.000000 0.000000
vn 0.000000 1.000000 0.000000
vn 0.000000 1.000000 -0.000000
vn 0.000000 1.000000 0.000000
vn 0.000000 1.000000 0.000000
vn 0.000000 1.000000 0.000000
vn 0.000000 1.000000 0.000000
vn 0.000000 1.000000 0.000000
vn 0.000000 1.000000 0.000000
vn 0.000000 1.000000 -0.000000
vn 0.000000 1.000000 -0.000000
vn 0.000000 1.000000 -0.000000
vn 0.000000 1.000000 0.000000
vn -0.000000 1.000000 0.000000
vn -0.000203 1.000000 -0.000635
vn 0.000000 1.000000 0.000000
vn 0.000000 1.000000 -0.000000
vn 0.000000 1.000000 0.000000
vn -0.010715 0.999898 -0.009418
vn -0.017651 0.999784 -0.010962
vn -0.021619 0.999524 -0.022006
vn 0.024721 0.999529 0.018192
vn 0.024217 0.999587 0.015462
vn 0.020046 0.999416 0.027680
vn -0.007357 0.999906 -0.011553
vn -0.013073 0.999698 -0.020823
vn -0.455798 -0.629390 -0.629378
vn -0.455798 -0.629390 -0.629378
vn -0.455798 -0.629390 -0.629378
vn -0.000054 1.000000 -0.000017
vn -0.000005 1.000000 -0.000008
vn 0.000000 1.000000 0.000000
vn 0.000000 1.000000 0.000000
vn 0.000000 1.000000 0.000000
vn 0.000000 1.000000 -0.000000
vn 0.000000 1.000000 -0.000000
vn 0.000000 1.000000 0.000000
vn 0.000000 1.000000 0.000000
vn 0.000000 1.000000 -0.000000
vn 0.000000 1.000000 0.000000
vn 0.000000 1.000000 -0.000000
vn 0.000000 1.000000 0.000000
vn 0.000000 1.000000 0.000000
vn 0.000000 1.000000 0.000000
vn 0.000000 1.000000 0.000000
vn 0.000000 1.000000 0.000000
vn 0.000000 1.000000 0.000000
vn 0.000000 1.000000 -0.000000
vn 0.000000 1.000000 -0.000000
vn 0.000000 1.000000 0.000000
vn 0.000000 1.000000 0.000000
vn 0.000000 1.000000 -0.000000
vn 0.000000 1.000000 0.000000
vn 0.000000 1.000000 0.000000
vn 0.000000 1.000000 0.000000
vn 0.000000 1.000000 -0.000000
vn 0.000000 1.000000 0.000000
vn 0.000000 1.000000 -0.000000
vn 0.000000 1.000000 0.000000
vn 0.000000 1.000000 0.000000
vn 0.000000 1.000000 0.000000
vn 0.000000 1.000000 -0.000000
vn 0.000000 -1.000000 0.000000
vn 0.000000 -1.000000 0.000000
vn 0.000000 -1.000000 0.000000
vn 0.000000 -1.000000 0.000000
vn 0.000000 -1.000000 0.000000
vn 0.000000 -1.000000 0.000000
vn 0.000000 -1.000000 0.000000
vn 0.000000 -1.000000 0.000000
vn 0.000000 -1.000000 0.000000
vn 0.000000 -1.000000 0.000000
vn 0.000000 -1.000000 0.000000
vn 0.000000 -1.000000 0.000000
vn 0.000000 -1.000000 0.000000
vn 0.000000 -1.000000 0.000000
vn 0.000000 -1.000000 0.000000
vn 0.000000 -1.000000 0.000000
vn 0.000000 -1.000000 0.000000
vn 0.000000 -1.000000 0.000000
vn 0.000000 -1.000000 0.000000
vn 0.000000 -1.000000 0.000000
vn 0.000000 -1.000000 0.000000
vn 0.000000 -1.000000 0.000000
vn 0.000000 -1.000000 0.000000
vn 0.000000 -1.000000 0.000000
vn 0.000000 -1.000000 0.000000
vn 0.000000 -1.000000 0.000000
vn 0.000000 -1.000000 0.000000
vn 0.000000 -1.000000 0.000000
vn 0.000000 -1.000000 0.000000
vn 0.000000 -1.000000 0.000000
vn 0.000000 -1.000000 0.000000
vn 0.000000 -1.000000 0.000000
vn 0.000000 -1.000000 0.000000
vn 0.000000 -1.000000 0.000000
vn 0.000000 -1.000000 0.000000
vn 0.000000 -1.000000 0.000000
vn 0.000000 -1.000000 0.000000
vn 0.000000 -1.000000 0.000000
vn 0.000000 -1.000000 0.000000
vn 0.000000 -1.000000 0.000000
vn 0.000000 -1.000000 0.000000
vn 0.000000 -1.000000 0.000000
vn 0.000000 -1.000000 0.000000
vn 0.000000 -1.000000 0.000000
vn 0.000000 -1.000000 0.000000
vn 0.000000 -1.000000 0.000000
vn 0.000000 -1.000000 0.000000
vn 0.000000 -1.000000 0.000000
vn 0.000000 -1.000000 0.000000
vn 0.000000 -1.000000 0.000000
vn 0.000000 -1.000000 0.000000
vn 0.000000 -1.000000 0.000000
vn 0.000000 -1.000000 0.000000
vn 0.000000 -1.000000 0.000000
vn 0.000000 -1.000000 0.000000
vn 0.000000 -1.000000 0.000000
vn 0.000000 -1.000000 0.000000
vn 0.000000 -1.000000 0.000000
vn 0.000000 -1.000000 0.000000
vn 0.000000 -1.000000 0.000000
vn 0.000000 -1.000000 0.000000
vn 0.000000 -1.000000 0.000000
vn 0.000000 -1.000000 0.000000
vn 0.000000 -1.000000 0.000000
vn 0.000000 -1.000000 0.000000
vn 0.000000 -1.000000 0.000000
vn 0.000000 -1.000000 0.000000
vn 0.000000 -1.000000 0.000000
vn 0.000000 -1.000000 0.000000
vn 0.000000 -1.000000 0.000000
vn 0.000000 -1.000000 0.000000
vn 0.000000 -1.000000 0.000000
vn 0.000000 -1.000000 0.000000
vn 0.000000 -1.000000 0.000000
vn 0.000000 -1.000000 0.000000
vn 0.000000 -1.000000 0.000000
vn 0.000000 -1.000000 0.000000
vn 0.000000 -1.000000 0.000000
vn 0.000000 -1.000000 0.000000
vn 0.000000 -1.000000 0.000000
vn 0.000000 -1.000000 0.000000
vn 0.000000 -1.000000 0.000000
vn 0.000000 -1.000000 0.000000
vn 0.000000 -1.000000 0.000000
vn 0.000000 -1.000000 0.000000
vn 0.000000 -1.000000 0.000000
vn 0.000000 -1.000000 0.000000
vn 0.000000 -1.000000 0.000000
vn 0.000000 -1.000000 0.000000
vn 0.000000 -1.000000 0.000000
vn 0.000000 -1.000000 0.000000
vn 0.000000 -1.000000 0.000000
vn 0.000000 -1.000000 0.000000
vn 0.000000 -1.000000 0.000000
vn 0.000000 -1.000000 0.000000
vn 0.000000 -1.000000 0.000000
vn 0.000000 -1.000000 0.000000
vn 0.000000 -1.000000 0.000000
vn 0.000000 -1.000000 0.000000
vn 0.000000 -1.000000 0.000000
vn 0.000000 -1.000000 0.000000
vn 0.000000 -1.000000 0.000000
vn 0.000000 -1.000000 0.000000
vn 0.000000 -1.000000 0.000000
vn 0.000000 -1.000000 0.000000
vn 0.000000 -1.000000 0.000000
vn 0.000000 -1.000000 0.000000
vn 0.000000 -1.000000 0.000000
vn 0.000000 -1.000000 0.000000
vn 0.000000 -1.000000 0.000000
vn 0.000000 -1.000000 0.000000
vn 0.000000 -1.000000 0.000000
vn 0.000000 -1.000000 0.000000
vn 0.000000 -1.000000 0.000000
vn 0.000000 -1.000000 0.000000
vn 0.000000 -1.000000 0.000000
vn 0.000000 -1.000000 0.000000
vn 0.000000 -1.000000 0.000000
vn 0.000000 -1.000000 0.000000
vn 0.000000 -1.000000 0.000000
vn 0.000000 -1.000000 0.000000
vn 0.000000 -1.000000 0.000000
vn 0.000000 -1.000000 0.000000
vn 0.000000 -1.000000 0.000000
vn 0.000000 -1.000000 0.000000
vn 0.000000 -1.000000 0.000000
vn 0.000000 -1.000000 0.000000
vn 0.000000 -1.000000 0.000000
vn 0.000000 -1.000000 0.000000
vn 0.000000 -1.000000 0.000000
vn 0.000000 -1.000000 0.000000
vn 0.000000 -1.000000 0.000000
vn 0.000000 -1.000000 0.000000
vn 0.000000 -1.000000 0.000000
vn 0.000000 -1.000000 0.000000
vn 0.000000 -1.000000 0.000000
vn 0.000000 -1.000000 0.000000
vn 0.000000 -1.000000 0.000000
vn 0.000000 -1.000000 0.000000
vn 0.000000 -1.000000 0.000000
vn 0.000000 -1.000000 0.000000
vn 0.000000 -1.000000 0.000000
vn 0.000000 -1.000000 0.000000
vn 0.000000 -1.000000 0.000000
vn 0.000000 -1.000000 0.000000
vn 0.000000 -1.000000 0.000000
vn 0.000000 -1.000000 0.000000
vn 0.000000 -1.000000 0.000000
vn 0.000000 -1.000000 0.000000
vn 0.000000 -1.000000 0.000000
vn 0.000000 -1.000000 0.000000
vn 0.000000 -1.000000 0.000000
vn 0.000000 -1.000000 0.000000
vn 0.000000 -1.000000 0.000000
vn 0.000000 -1.000000 0.000000
vn 0.000000 -1.000000 0.000000
vn 0.000000 -1.000000 0.000000
vn 0.000000 -1.000000 0.000000
vn 0.000000 -1.000000 0.000000
vn 0.000000 -1.000000 0.000000
vn 0.000000 -1.000000 0.000000
vn 0.000000 -1.000000 0.000000
vn 0.000000 -1.000000 0.000000
vn 0.000000 -1.000000 0.000000
vn 0.000000 -1.000000 0.000000
vn 0.000000 -1.000000 0.000000
vn 0.000000 -1.000000 0.000000
vn 0.000000 -1.000000 0.000000
vn 0.000000 -1.000000 0.000000
vn 0.000000 -1.000000 0.000000
vn 0.000000 -1.000000 0.000000
vn 0.000000 -1.000000 0.000000
vn 0.000000 -1.000000 0.000000
vn 0.000000 -1.000000 0.000000
vn 0.000000 -1.000000 0.000000
vn 0.000000 -1.000000 0.000000
vn 0.000000 -1.000000 0.000000
vn 0.000000 -1.000000 0.000000
vn 0.000000 -1.000000 0.000000
vn 0.000000 -1.000000 0.000000
vn 0.000000 -1.000000 0.000000
vn 0.000000 -1.000000 0.000000
vn 0.000000 -1.000000 0.000000
vn 0.000000 -1.000000 0.000000
vn 0.000000 -1.000000 0.000000
vn 0.000000 -1.000000 0.000000
vn 0.984980 0.000000 -0.172668
vn 0.983177 0.000000 -0.182656
vn 0.983177 0.000000 -0.182656
vn 0.984980 0.000000 -0.172668
vn -0.271874 0.000000 -0.962333
vn -0.352836 0.000000 -0.935685
vn -0.352836 0.000000 -0.935685
vn -0.271874 0.000000 -0.962333
vn 0.150065 0.000000 0.988676
vn 0.314959 0.000000 0.949105
vn 0.314959 0.000000 0.949105
vn 0.150065 0.000000 0.988676
vn -0.989831 0.000000 0.142251
vn -0.978357 0.000000 0.206925
vn -0.978357 0.000000 0.206925
vn -0.989831 0.000000 0.142251
vn 0.630956 0.000000 -0.775818
vn 0.512268 0.000000 -0.858826
vn 0.512268 0.000000 -0.858826
vn 0.630956 0.000000 -0.775818
vn -0.780089 0.000000 -0.625668
vn -0.881482 0.000000 -0.472217
vn -0.881482 0.000000 -0.472217
vn -0.780089 0.000000 -0.625668
vn -0.003783 0.000000 -0.999993
vn -0.003783 0.000000 -0.999993
vn -0.003783 0.000000 -0.999993
vn -0.003783 0.000000 -0.999993
vn -0.132172 0.000000 -0.991227
vn -0.370220 0.000000 -0.928944
vn -0.370220 0.000000 -0.928944
vn -0.132172 0.000000 -0.991227
vn 0.748092 0.000000 -0.663595
vn 0.499014 0.000000 -0.866594
vn 0.499014 0.000000 -0.866594
vn 0.748092 0.000000 -0.663595
vn -0.922954 0.000000 -0.384910
vn -0.938053 0.000000 -0.346492
vn -0.938053 0.000000 -0.346492
vn -0.922954 0.000000 -0.384910
vn -0.982564 0.000000 0.185927
vn -0.982564 0.000000 0.185927
vn -0.982564 0.000000 0.185927
vn -0.982564 0.000000 0.185927
vn 0.959077 0.000000 -0.283146
vn 0.954065 0.000000 -0.299601
vn 0.954065 0.000000 -0.299601
vn 0.959077 0.000000 -0.283146
vn 1.000000 0.000000 0.000000
vn 1.000000 0.000000 0.000000
vn 1.000000 0.000000 0.000000
vn 1.000000 0.000000 0.000000
vn 0.981847 0.000000 0.189677
vn 0.975791 0.000000 0.218705
vn 0.975791 0.000000 0.218705
vn 0.981847 0.000000 0.189677
vn -0.930544 0.000000 0.366181
vn -0.967710 0.000000 0.252065
vn -0.967710 0.000000 0.252065
vn -0.930544 0.000000 0.366181
vn -0.955572 0.000000 0.294759
vn -0.971693 0.000000 0.236248
vn -0.971693 0.000000 0.236248
vn -0.955572 0.000000 0.294759
vn 0.653432 0.000000 0.756985
vn 0.637742 0.000000 0.770250
vn 0.637742 0.000000 0.770250
vn 0.653432 0.000000 0.756985
vn 0.162206 0.000000 -0.986757
vn 0.192396 0.000000 -0.981317
vn 0.192396 0.000000 -0.981317
vn 0.162206 0.000000 -0.986757
vn -0.018285 0.000000 0.999833
vn -0.317148 0.000000 0.948376
vn -0.317148 0.000000 0.948376
vn -0.018285 0.000000 0.999833
vn -0.369437 0.000000 0.929256
vn -0.369437 0.000000 0.929256
vn 0.461693 0.000000 0.887040
vn 0.461693 0.000000 0.887040
vn 0.461693 0.000000 0.887040
vn 0.461693 0.000000 0.887040
vn -0.549243 0.000000 0.835662
vn -0.560676 0.000000 0.828036
vn -0.560676 0.000000 0.828036
vn -0.549243 0.000000 0.835662
vn 0.683244 0.000000 0.730190
vn 0.683244 0.000000 0.730190
vn 0.683244 0.000000 0.730190
vn 0.683244 0.000000 0.730190
vn -0.983437 0.000000 -0.181250
vn -0.983437 0.000000 -0.181250
vn -0.983437 0.000000 -0.181250
vn -0.983437 0.000000 -0.181250
vn 0.654831 0.000000 -0.755775
vn 0.477124 0.000000 -0.878836
vn 0.477124 0.000000 -0.878836
vn 0.654831 0.000000 -0.755775
vn 0.203117 0.000000 0.979154
vn 0.340874 0.000000 0.940109
vn 0.340874 0.000000 0.940109
vn 0.203117 0.000000 0.979154
vn -0.996492 0.000000 -0.083693
vn -0.992044 0.000000 -0.125893
vn -0.992044 0.000000 -0.125893
vn -0.996492 0.000000 -0.083693
vn -0.262742 0.000000 -0.964866
vn -0.262742 0.000000 -0.964866
vn -0.262742 0.000000 -0.964866
vn -0.262742 0.000000 -0.964866
vn 0.933349 0.000000 0.358971
vn 0.933349 0.000000 0.358971
vn 0.007238 0.000000 -0.999974
vn 0.007238 0.000000 -0.999974
vn 0.007238 0.000000 -0.999974
vn 0.007238 0.000000 -0.999974
vn 0.087302 0.000000 0.996182
vn 0.087302 0.000000 0.996182
vn 0.087302 0.000000 0.996182
vn 0.087302 0.000000 0.996182
vn 0.680996 0.000000 0.732287
vn 0.680996 0.000000 0.732287
vn 0.998382 0.000000 0.056858
vn 0.998382 0.000000 0.056858
vn 0.998382 0.000000 0.056858
vn 0.998382 0.000000 0.056858
vn 0.554700 0.000000 0.832050
vn 0.554700 0.000000 0.832050
vn 0.554700 0.000000 0.832050
vn 0.554700 0.000000 0.832050
vn -0.997415 0.000000 0.071861
vn -0.996017 0.000000 -0.089161
vn -0.996017 0.000000 -0.089161
vn -0.997415 0.000000 0.071861
vn -0.952949 0.000000 0.303131
vn -0.952949 0.000000 0.303131
vn -0.293904 0.000000 0.955835
vn -0.293904 0.000000 0.955835
vn -0.293904 0.000000 0.955835
vn -0.293904 0.000000 0.955835
vn 0.780841 0.000000 0.624729
vn 0.961635 0.000000 0.274332
vn 0.961635 0.000000 0.274332
vn 0.780841 0.000000 0.624729
vn 0.974810 0.000000 0.223037
vn 0.974810 0.000000 0.223037
vn 0.925538 0.000000 0.378654
vn 0.925538 0.000000 0.378654
vn 0.239176 0.000000 -0.970976
vn 0.239176 0.000000 -0.970976
vn 0.161818 0.000000 0.986821
vn 0.051331 0.000000 0.998682
vn 0.051331 0.000000 0.998682
vn 0.161818 0.000000 0.986821
vn 0.059974 0.000000 0.998200
vn 0.059974 0.000000 0.998200
vn 0.004237 0.000000 0.999991
vn 0.004237 0.000000 0.999991
vn 0.000000 0.000000 -1.000000
vn 0.000000 0.000000 -1.000000
vn 0.000000 0.000000 -1.000000
vn 0.000000 0.000000 -1.000000
vn -0.082987 0.000000 0.996551
vn -0.504434 0.000000 0.863450
vn -0.504434 0.000000 0.863450
vn -0.082987 0.000000 0.996551
vn -0.511037 0.000000 0.859559
vn -0.511037 0.000000 0.859559
vn -0.997033 0.000000 -0.076978
vn -0.997033 0.000000 -0.076978
vn -0.998895 0.000000 0.046998
vn -0.998895 0.000000 0.046998
vn -0.714581 0.000000 0.699553
vn -0.714581 0.000000 0.699553
vn -0.977899 0.000000 -0.209077
vn -0.977899 0.000000 -0.209077
vn 0.099660 0.000000 -0.995022
vn 0.099660 0.000000 -0.995022
vn 0.099660 0.000000 -0.995022
vn 0.099660 0.000000 -0.995022
vn -1.000000 0.000000 0.000000
vn -0.926106 0.000000 -0.377263
vn -0.926106 0.000000 -0.377263
vn -1.000000 0.000000 0.000000
vn -0.776558 0.000000 0.630045
vn -0.776558 0.000000 0.630045
vn -0.776558 0.000000 0.630045
vn -0.776558 0.000000 0.630045
vn 0.425442 0.000000 -0.904986
vn 0.242159 0.000000 -0.970237
vn 0.242159 0.000000 -0.970237
vn 0.425442 0.000000 -0.904986
vn -0.995097 0.000000 -0.098902
vn -0.999369 0.000000 0.035531
vn -0.999369 0.000000 0.035531
vn -0.995097 0.000000 -0.098902
vn 0.000000 0.000000 -1.000000
vn 0.000000 0.000000 -1.000000
vn -0.583165 0.000000 -0.812354
vn -0.583165 0.000000 -0.812354
vn -0.583165 0.000000 -0.812354
vn -0.583165 0.000000 -0.812354
vn -0.957974 0.000000 -0.286854
vn -0.957974 0.000000 -0.286854
vn -0.962970 0.000000 -0.269610
vn -0.962970 0.000000 -0.269610
vn -0.620703 0.000000 -0.784045
vn -0.620703 0.000000 -0.784045
vn -0.620703 0.000000 -0.784045
vn -0.620703 0.000000 -0.784045
vn -0.093766 0.000000 -0.995594
vn -0.231646 0.000000 -0.972800
vn -0.231646 0.000000 -0.972800
vn -0.093766 0.000000 -0.995594
vn -0.647831 0.000000 0.761784
vn -0.559853 0.000000 0.828592
vn -0.559853 0.000000 0.828592
vn -0.647831 0.000000 0.761784
vn 0.197709 0.000000 -0.980261
vn 0.197709 0.000000 -0.980261
vn -0.738232 0.000000 0.674547
vn -0.738232 0.000000 0.674547
vn -0.130629 0.000000 -0.991431
vn -0.130629 0.000000 -0.991431
vn -0.483874 0.000000 -0.875138
vn -0.728872 0.000000 -0.684650
vn -0.728872 0.000000 -0.684650
vn -0.483874 0.000000 -0.875138
vn -0.999954 0.000000 0.009606
vn -0.999954 0.000000 0.009606
vn -0.999954 0.000000 0.009606
vn -0.999954 0.000000 0.009606
vn -0.777248 0.000000 -0.629194
vn -0.777248 0.000000 -0.629194
vn -0.777248 0.000000 -0.629194
vn -0.777248 0.000000 -0.629194
vn -0.999792 0.000000 0.020384
vn -0.999792 0.000000 0.020384
vn -0.999792 0.000000 0.020384
vn -0.999792 0.000000 0.020384
vn -0.017001 0.000000 -0.999856
vn -0.017001 0.000000 -0.999856
vn -0.731036 0.000000 0.682339
vn -0.731036 0.000000 0.682339
vn -0.731036 0.000000 0.682339
vn -0.731036 0.000000 0.682339
vn -0.284528 0.000000 0.958668
vn -0.284528 0.000000 0.958668
vn -0.284528 0.000000 0.958668
vn -0.284528 0.000000 0.958668
vn -0.998660 0.000000 0.051750
vn -0.998660 0.000000 0.051750
vn -0.998660 0.000000 0.051750
vn -0.998660 0.000000 0.051750
vn 0.994703 0.000000 -0.102795
vn 0.994703 0.000000 -0.102795
vn 0.994703 0.000000 -0.102795
vn 0.994703 0.000000 -0.102795
vn -0.998551 0.000000 0.053820
vn -0.998551 0.000000 0.053820
vn -0.998551 0.000000 0.053820
vn -0.998551 0.000000 0.053820
vn -0.834041 0.000000 -0.551702
vn -0.834041 0.000000 -0.551702
vn -0.834041 0.000000 -0.551702
vn -0.834041 0.000000 -0.551702
vn -0.990879 0.000000 0.134755
vn -0.990879 0.000000 0.134755
vn -0.990879 0.000000 0.134755
vn -0.990879 0.000000 0.134755
vn 0.965995 0.000000 -0.258562
vn 0.965995 0.000000 -0.258562
vn 0.965995 0.000000 -0.258562
vn 0.965995 0.000000 -0.258562
vn -0.996747 0.000000 0.080595
vn -0.996747 0.000000 0.080595
vn 0.127316 0.000000 0.991862
vn 0.127316 0.000000 0.991862
vn 0.127316 0.000000 0.991862
vn 0.127316 0.000000 0.991862
vn -0.267047 0.000000 0.963683
vn -0.111119 0.000000 0.993807
vn -0.111119 0.000000 0.993807
vn -0.267047 0.000000 0.963683
vn 0.189165 0.000000 -0.981945
vn 0.082510 0.000000 -0.996590
vn 0.082510 0.000000 -0.996590
vn 0.189165 0.000000 -0.981945
vn -0.553047 0.000000 0.833150
vn -0.553047 0.000000 0.833150
vn -0.156870 0.000000 -0.987619
vn -0.156870 0.000000 -0.987619
vn -0.795218 0.000000 0.606324
vn -0.795218 0.000000 0.606324
vn -0.612750 0.000000 -0.790277
vn -0.612750 0.000000 -0.790277
vn -0.798818 0.000000 -0.601573
vn -0.798818 0.000000 -0.601573
vn -0.999869 0.000000 -0.016209
vn -0.999869 0.000000 -0.016209
vn -0.999869 0.000000 -0.016209
vn -0.999869 0.000000 -0.016209
vn -0.133095 0.000000 -0.991103
vn -0.371377 0.000000 -0.928482
vn -0.371377 0.000000 -0.928482
vn -0.133095 0.000000 -0.991103
vn -0.551731 0.000000 0.834022
vn -0.551731 0.000000 0.834022
vn -0.551731 0.000000 0.834022
vn -0.551731 0.000000 0.834022
vn 0.179057 0.000000 -0.983839
vn 0.179057 0.000000 -0.983839
vn -0.056164 0.000000 0.998422
vn -0.056164 0.000000 0.998422
vn -0.056164 0.000000 0.998422
vn -0.056164 0.000000 0.998422
vn 0.616663 0.000000 -0.787227
vn 0.616663 0.000000 -0.787227
vn 0.685751 0.000000 -0.727836
vn 0.685751 0.000000 -0.727836
vn 0.083029 0.000000 0.996547
vn 0.321622 0.000000 0.946868
vn 0.321622 0.000000 0.946868
vn 0.083029 0.000000 0.996547
vn 0.601549 0.000000 0.798836
vn 0.791801 0.000000 0.610779
vn 0.791801 0.000000 0.610779
vn 0.601549 0.000000 0.798836
vn 0.992794 0.000000 -0.119834
vn 0.992794 0.000000 -0.119834
vn 0.992794 0.000000 -0.119834
vn 0.992794 0.000000 -0.119834
vn -0.191763 0.000000 -0.981441
vn -0.137104 0.000000 -0.990557
vn -0.137104 0.000000 -0.990557
vn -0.191763 0.000000 -0.981441
vn -0.083043 0.000000 -0.996546
vn -0.083043 0.000000 -0.996546
vn -0.647627 0.000000 -0.761957
vn -0.647627 0.000000 -0.761957
vn -0.647627 0.000000 -0.761957
vn -0.647627 0.000000 -0.761957
vn 0.983003 0.000000 -0.183591
vn 0.983003 0.000000 -0.183591
vn 0.983003 0.000000 -0.183591
vn 0.983003 0.000000 -0.183591
vn -0.999510 0.000000 -0.031313
vn -0.999510 0.000000 -0.031313
vn -0.999510 0.000000 -0.031313
vn -0.999510 0.000000 -0.031313
vn -0.739492 0.000000 0.673165
vn -0.525126 0.000000 0.851024
vn -0.525126 0.000000 0.851024
vn -0.739492 0.000000 0.673165
vn -0.054842 0.000000 -0.998495
vn -0.175214 0.000000 -0.984530
vn -0.175214 0.000000 -0.984530
vn -0.054842 0.000000 -0.998495
vn -0.183015 0.000000 0.983110
vn -0.183015 0.000000 0.983110
vn 0.187645 0.000000 -0.982237
vn 0.187645 0.000000 -0.982237
vn -0.082518 0.000000 0.996590
vn -0.082518 0.000000 0.996590
vn 0.438655 0.000000 -0.898655
vn 0.438655 0.000000 -0.898655
vn 0.936106 0.000000 -0.351717
vn 0.852580 0.000000 -0.522597
vn 0.852580 0.000000 -0.522597
vn 0.936106 0.000000 -0.351717
vn 0.067434 0.000000 0.997724
vn 0.067434 0.000000 0.997724
vn 0.067434 0.000000 0.997724
vn 0.067434 0.000000 0.997724
vn 0.736562 0.000000 0.676370
vn 0.804428 0.000000 0.594051
vn 0.804428 0.000000 0.594051
vn 0.736562 0.000000 0.676370
vn 0.995040 0.000000 -0.099477
vn 0.995040 0.000000 -0.099477
vn 0.617932 0.000000 0.786232
vn 0.617932 0.000000 0.786232
vn 0.000000 0.000000 1.000000
vn 0.000000 0.000000 1.000000
vn 0.000000 0.000000 1.000000
vn 0.000000 0.000000 1.000000
vn -0.015067 0.000000 -0.999886
vn 0.204696 0.000000 -0.978826
vn 0.204696 0.000000 -0.978826
vn -0.015067 0.000000 -0.999886
vn 0.299437 0.000000 -0.954116
vn 0.299437 0.000000 -0.954116
vn 0.285536 0.000000 -0.958368
vn 0.285536 0.000000 -0.958368
vn 0.285536 0.000000 -0.958368
vn 0.285536 0.000000 -0.958368
vn 0.273332 0.000000 -0.961920
vn 0.273332 0.000000 -0.961920
vn 0.273332 0.000000 -0.961920
vn 0.273332 0.000000 -0.961920
vn -0.998850 0.000000 -0.047940
vn -0.998850 0.000000 -0.047940
vn 0.999309 0.000000 0.037161
vn 0.999309 0.000000 0.037161
vn 0.999309 0.000000 0.037161
vn 0.999309 0.000000 0.037161
vn -1.000000 0.000000 0.000000
vn -0.951344 0.000000 -0.308132
vn -0.951344 0.000000 -0.308132
vn -1.000000 0.000000 0.000000
vn 0.061778 0.000000 0.998090
vn 0.061778 0.000000 0.998090
vn 0.101662 0.126379 -0.986759
vn 0.102542 0.125657 -0.986760
vn 0.015165 0.196097 -0.980467
vn 0.015165 0.196097 -0.980467
vn -0.999938 -0.003519 -0.010563
vn -0.999211 -0.007794 0.038951
vn -0.999211 -0.007794 0.038951
vn -0.999934 -0.003484 -0.010971
vn -0.999952 -0.001916 0.009580
vn -0.999952 -0.001916 0.009580
vn -0.999952 -0.001916 0.009580
vn -0.999952 -0.001916 0.009580
vn -0.344613 0.000000 0.938745
vn -0.344613 0.000000 0.938745
vn -0.344613 0.000000 0.938745
vn -0.344613 0.000000 0.938745
vn -0.348019 0.838515 -0.419256
vn -0.348019 0.838515 -0.419256
vn -0.348019 0.838515 -0.419256
vn -0.348019 0.838515 -0.419256
vn 1.000000 0.000000 0.000000
vn 1.000000 0.000000 0.000000
vn 1.000000 0.000000 0.000000
vn 0.791510 0.000000 0.611156
vn 0.791510 0.000000 0.611156
vn 0.791510 0.000000 0.611156
vn 0.791510 0.000000 0.611156
vn 0.999962 0.000000 -0.008761
vn 0.999962 0.000000 -0.008761
vn 0.999962 0.000000 -0.008761
vn 0.999962 0.000000 -0.008761
vn 0.990266 0.000000 -0.139188
vn 0.995290 0.000000 -0.096938
vn 0.995290 0.000000 -0.096938
vn 0.990266 0.000000 -0.139188
vn 0.999216 0.000000 -0.039599
vn 0.999216 0.000000 -0.039599
vn -0.990604 0.000000 -0.136759
vn -0.990604 0.000000 -0.136759
vn 0.989392 0.028492 -0.142453
vn 0.989392 0.028492 -0.142453
vn 0.989392 0.028492 -0.142453
vn 0.989392 0.028492 -0.142453
vn 0.751568 0.000000 0.659655
vn 0.751568 0.000000 0.659655
vn 0.751568 0.000000 0.659655
vn 0.751568 0.000000 0.659655
vn 0.999363 0.000000 0.035685
vn 0.999363 0.000000 0.035685
vn 0.999363 0.000000 0.035685
vn 0.999363 0.000000 0.035685
vn 0.857021 0.000000 -0.515281
vn 0.857021 0.000000 -0.515281
vn 0.000000 0.000000 1.000000
vn 0.000000 0.000000 1.000000
vn 0.123703 0.000000 -0.992319
vn 0.123703 0.000000 -0.992319
vn -0.151283 0.000000 0.988490
vn -0.151283 0.000000 0.988490
vn -0.151283 0.000000 0.988490
vn -0.151283 0.000000 0.988490
vn -0.671978 0.000000 -0.740571
vn -0.671978 0.000000 -0.740571
vn -0.353900 0.000000 0.935283
vn -0.353900 0.000000 0.935283
vn -0.353900 0.000000 0.935283
vn -0.353900 0.000000 0.935283
vn 0.080040 0.000000 0.996792
vn 0.080040 0.000000 0.996792
vn 0.080040 0.000000 0.996792
vn 0.080040 0.000000 0.996792
vn -0.999072 0.000000 0.043065
vn -0.999072 0.000000 0.043065
vn -0.999072 0.000000 0.043065
vn -0.999072 0.000000 0.043065
vn -0.908137 0.000000 -0.418672
vn -0.980026 0.000000 -0.198869
vn -0.980026 0.000000 -0.198869
vn -0.908137 0.000000 -0.418672
vn -0.839830 0.000000 0.542850
vn -0.839830 0.000000 0.542850
vn -0.839830 0.000000 0.542850
vn -0.839830 0.000000 0.542850
vn 0.979872 0.000000 -0.199627
vn 0.979872 0.000000 -0.199627
vn 0.844358 0.000000 0.535780
vn 0.844358 0.000000 0.535780
vn 0.844358 0.000000 0.535780
vn 0.844358 0.000000 0.535780
vn 1.000000 0.000000 0.000000
vn 0.984659 0.000000 -0.174488
vn 0.984659 0.000000 -0.174488
vn 1.000000 0.000000 0.000000
vn 0.882183 0.000000 -0.470907
vn 0.882183 0.000000 -0.470907
vn -0.131849 0.000000 0.991270
vn -0.050293 0.000000 0.998735
vn -0.050293 0.000000 0.998735
vn -0.131849 0.000000 0.991270
vn 0.816014 0.000000 -0.578032
vn 0.816014 0.000000 -0.578032
vn -0.298297 0.000000 0.954473
vn -0.298297 0.000000 0.954473
vn -0.999584 0.000000 0.028853
vn -0.973425 0.000000 0.229004
vn -0.973425 0.000000 0.229004
vn -0.999584 0.000000 0.028853
vn -0.999934 0.000000 -0.011459
vn -0.999934 0.000000 -0.011459
vn 0.000000 0.000000 -1.000000
vn -0.196100 0.000000 -0.980584
vn -0.196100 0.000000 -0.980584
vn 0.000000 0.000000 -1.000000
vn -0.677156 0.000000 -0.735840
vn -0.677156 0.000000 -0.735840
vn -0.788714 0.000000 -0.614760
vn -0.788714 0.000000 -0.614760
vn -0.993792 0.000000 0.111251
vn -0.999208 0.000000 0.039793
vn -0.999208 0.000000 0.039793
vn -0.993792 0.000000 0.111251
vn -0.999877 0.000000 -0.015663
vn -0.999877 0.000000 -0.015663
vn 0.313725 0.000000 -0.949514
vn 0.313725 0.000000 -0.949514
vn 0.313725 0.000000 -0.949514
vn 0.313725 0.000000 -0.949514
vn 0.762310 0.000000 -0.647212
vn 0.762310 0.000000 -0.647212
vn 0.762310 0.000000 -0.647212
vn 0.762310 0.000000 -0.647212
vn 0.207171 0.000000 -0.978305
vn 0.207171 0.000000 -0.978305
vn 0.207171 0.000000 -0.978305
vn 0.207171 0.000000 -0.978305
vn 0.122498 0.000000 -0.992469
vn 0.122498 0.000000 -0.992469
vn 0.949514 0.000000 0.313726
vn 0.974727 0.000000 0.223401
vn 0.974727 0.000000 0.223401
vn 0.949514 0.000000 0.313726
vn 0.378869 0.000000 -0.925451
vn 0.378869 0.000000 -0.925451
vn 0.992272 0.000000 -0.124084
vn 0.992272 0.000000 -0.124084
vn 0.527713 0.000000 -0.849423
vn 0.527713 0.000000 -0.849423
vn 0.672021 0.000000 -0.740532
vn 0.672021 0.000000 -0.740532
vn 0.672021 0.000000 -0.740532
vn 0.672021 0.000000 -0.740532
vn 0.729735 0.000000 -0.683730
vn 0.586193 0.000000 -0.810171
vn 0.586193 0.000000 -0.810171
vn 0.729735 0.000000 -0.683730
vn 0.993671 0.000000 0.112334
vn 0.997491 0.000000 0.070791
vn 0.997491 0.000000 0.070791
vn 0.993671 0.000000 0.112334
vn 0.981600 0.000000 -0.190949
vn 0.981600 0.000000 -0.190949
vn 0.826582 0.000000 -0.562817
vn 0.826582 0.000000 -0.562817
vn -1.000000 0.000000 0.000000
vn -1.000000 0.000000 0.000000
vn -1.000000 0.000000 0.000000
vn -1.000000 0.000000 0.000000
vn -0.381658 0.000000 -0.924303
vn -0.381658 0.000000 -0.924303
vn -0.381658 0.000000 -0.924303
vn -0.381658 0.000000 -0.924303
s 1
g pPlane1
usemtl initialShadingGroup
f 185/1/1 186/2/2 187/3/3
f 188/4/4 189/5/5 190/6/6
f 191/7/7 192/8/8 193/9/9
f 194/10/10 195/11/11 196/12/12
f 197/13/13 198/14/14 199/15/15
f 201/16/16 200/17/17 202/18/18
f 203/19/19 204/20/20 205/21/21
f 206/22/22 207/23/23 208/24/24
f 209/25/25 210/26/26 211/27/27
f 212/28/28 213/29/29 200/17/17
f 200/17/17 201/16/16 212/28/28
f 214/30/30 205/21/21 215/31/31
f 216/32/32 201/16/16 217/33/33
f 219/34/34 218/35/35 220/36/36
f 221/37/37 216/32/32 217/33/33
f 222/38/38 223/39/39 217/33/33
f 224/40/40 225/41/41 226/42/42
f 217/33/33 227/43/43 228/44/44
f 228/44/44 229/45/45 230/46/46
f 231/47/47 222/38/38 217/33/33
f 219/34/34 232/48/48 233/49/49
f 234/50/50 235/51/51 236/52/52
f 237/53/53 238/54/54 239/55/55 240/56/56
f 241/57/57 242/58/58 243/59/59
f 244/60/60 201/16/16 196/12/12
f 245/61/61 220/36/36 246/62/62
f 225/41/41 247/63/63 248/64/64
f 249/65/65 247/63/63 250/66/66
f 247/63/63 251/67/67 250/66/66
f 225/41/41 251/67/67 247/63/63
f 225/41/41 252/68/68 251/67/67
f 219/34/34 220/36/36 245/61/61
f 219/34/34 253/69/69 225/41/41
f 225/41/41 253/69/69 252/68/68
f 219/34/34 245/61/61 254/70/70
f 219/34/34 254/70/70 255/71/71
f 219/34/34 255/71/71 253/69/69
f 232/48/48 225/41/41 224/40/40
f 232/48/48 219/34/34 225/41/41
f 219/34/34 233/49/49 256/72/72
f 257/73/73 219/34/34 256/72/72
f 258/74/74 219/34/34 257/73/73
f 217/33/33 219/34/34 258/74/74
f 217/33/33 258/74/74 227/43/43
f 228/44/44 230/46/46 217/33/33
f 217/33/33 230/46/46 259/75/75
f 217/33/33 259/75/75 260/76/76
f 217/33/33 260/76/76 231/47/47
f 221/37/37 223/39/39 261/77/77
f 221/37/37 261/77/77 262/78/78
f 217/33/33 223/39/39 221/37/37
f 216/32/32 263/79/79 201/16/16
f 264/80/80 263/79/79 265/81/81
f 201/16/16 263/79/79 264/80/80
f 201/16/16 264/80/80 212/28/28
f 266/82/82 267/83/83 268/84/84
f 266/82/82 269/85/85 267/83/83
f 268/84/84 270/86/86 271/87/87
f 268/84/84 267/83/83 270/86/86
f 271/87/87 270/86/86 272/88/88
f 201/16/16 202/18/18 269/85/85
f 201/16/16 269/85/85 266/82/82
f 201/16/16 266/82/82 199/15/15
f 273/89/89 274/90/90 275/91/91
f 199/15/15 198/14/14 276/92/92
f 277/93/93 278/94/94 198/14/14
f 277/93/93 198/14/14 197/13/13
f 278/94/94 279/95/95 280/96/96
f 277/93/93 279/95/95 278/94/94
f 280/96/96 281/97/97 282/98/98
f 280/96/96 279/95/95 281/97/97
f 273/89/89 275/91/91 283/99/99
f 284/100/100 198/14/14 274/90/90
f 284/100/100 274/90/90 273/89/89
f 276/92/92 198/14/14 284/100/100
f 276/92/92 201/16/16 199/15/15
f 244/60/60 285/101/101 286/102/102
f 287/103/103 285/101/101 244/60/60
f 288/104/104 289/105/105 290/106/106
f 291/107/107 292/108/108 293/109/109
f 289/105/105 294/110/110 194/10/10
f 194/10/10 294/110/110 195/11/11
f 287/103/103 288/104/104 285/101/101
f 289/105/105 288/104/104 294/110/110
f 294/110/110 288/104/104 287/103/103
f 285/101/101 295/111/111 296/112/112
f 285/101/101 288/104/104 295/111/111
f 296/112/112 297/113/113 298/114/114
f 296/112/112 295/111/111 297/113/113
f 298/114/114 299/115/115 300/116/116
f 298/114/114 297/113/113 299/115/115
f 300/116/116 299/115/115 301/117/117
f 302/118/118 303/119/119 292/108/108
f 302/118/118 292/108/108 291/107/107
f 290/106/106 304/120/120 303/119/119
f 290/106/106 303/119/119 302/118/118
f 304/120/120 289/105/105 305/121/121
f 290/106/106 289/105/105 304/120/120
f 305/121/121 306/122/122 307/123/123
f 305/121/121 289/105/105 306/122/122
f 307/123/123 308/124/124 309/125/125
f 307/123/123 306/122/122 308/124/124
f 286/102/102 201/16/16 244/60/60
f 310/126/126 201/16/16 286/102/102
f 234/50/50 201/16/16 310/126/126
f 311/127/127 312/128/128 313/129/129
f 314/130/130 235/51/51 234/50/50
f 311/127/127 313/129/129 315/131/131
f 316/132/132 317/133/133 312/128/128
f 316/132/132 312/128/128 311/127/127
f 318/134/134 317/133/133 235/51/51
f 235/51/51 317/133/133 316/132/132
f 318/134/134 314/130/130 319/135/135
f 318/134/134 235/51/51 314/130/130
f 319/135/135 320/136/136 321/137/137
f 319/135/135 314/130/130 320/136/136
f 321/137/137 322/138/138 323/139/139
f 321/137/137 320/136/136 322/138/138
f 234/50/50 236/52/52 201/16/16
f 201/16/16 236/52/52 214/30/30
f 214/30/30 236/52/52 324/140/140
f 214/30/30 324/140/140 241/57/57
f 214/30/30 241/57/57 243/59/59
f 214/30/30 243/59/59 325/141/141 326/142/142
f 214/30/30 326/142/142 186/2/2
f 327/143/143 328/144/144 242/58/58
f 327/143/143 242/58/58 241/57/57
f 329/145/145 211/27/27 206/22/22
f 239/55/55 330/146/146 327/143/143
f 330/146/146 239/55/55 238/54/54
f 331/147/147 330/146/146 332/148/148
f 332/148/149 333/149/150 334/150/151
f 335/151/152 334/150/153 326/142/142
f 327/143/143 330/146/146 328/144/144
f 330/146/146 331/147/147 328/144/144
s off
f 334/150/154 332/148/155 336/152/156
s 1
f 237/53/53 240/56/56 337/153/157
f 335/151/152 326/142/142 325/141/141
f 331/147/147 332/148/148 334/150/153
f 331/147/147 334/150/153 335/151/152
f 211/27/27 338/154/158 333/149/150
f 211/27/27 333/149/150 332/148/149
f 329/145/145 338/154/158 211/27/27
f 191/7/7 193/9/9 339/155/159
f 209/25/25 192/8/8 191/7/7
f 209/25/25 211/27/27 192/8/8
f 211/27/27 340/156/160 206/22/22
f 210/26/26 340/156/160 211/27/27
f 340/156/160 207/23/23 206/22/22
f 206/22/22 208/24/24 341/157/161
f 208/24/24 342/158/162 341/157/161
f 343/159/163 342/158/162 344/160/164
f 345/161/165 346/162/166 347/163/167
f 348/164/168 341/157/161 343/159/163
f 342/158/162 343/159/163 341/157/161
f 344/160/164 349/165/169 350/166/170
f 344/160/164 342/158/162 349/165/169
f 346/162/166 351/167/171 187/3/3
f 345/161/165 347/163/167 352/168/172
f 353/169/173 354/170/174 346/162/166
f 353/169/173 346/162/166 345/161/165
f 341/157/161 355/171/175 354/170/174
f 341/157/161 354/170/174 353/169/173
f 348/164/168 356/172/176 355/171/175
f 348/164/168 355/171/175 341/157/161
f 357/173/177 348/164/168 358/174/178
f 357/173/177 356/172/176 348/164/168
f 358/174/178 359/175/179 360/176/180
f 358/174/178 348/164/168 359/175/179
f 360/176/180 359/175/179 361/177/181
f 346/162/166 354/170/174 351/167/171
f 185/1/1 187/3/3 351/167/171
f 214/30/30 186/2/2 185/1/1
f 214/30/30 185/1/1 362/178/182
f 214/30/30 362/178/182 363/179/183
f 188/4/4 190/6/6 214/30/30 363/179/183
f 364/180/184 189/5/5 365/181/185
f 365/181/185 189/5/5 188/4/4
f 364/180/184 356/172/176 366/182/186
f 364/180/184 365/181/185 356/172/176
f 366/182/186 356/172/176 357/173/177
f 214/30/30 190/6/6 203/19/19
f 203/19/19 205/21/21 214/30/30
f 367/183/187 204/20/20 368/184/188
f 368/184/188 204/20/20 203/19/19
f 367/183/187 368/184/188 369/185/189
f 214/30/30 215/31/31 218/35/35
f 214/30/30 218/35/35 219/34/34
f 194/10/10 196/12/12 201/16/16
f 194/10/10 201/16/16 276/92/92
s 41
f 156/186/190 160/187/191 165/188/192
f 159/189/193 119/190/194 118/191/195
f 102/192/196 100/193/197 99/194/198
f 50/195/199 181/196/200 184/197/201
f 36/198/202 35/199/203 43/200/204
f 2/201/205 13/202/206 3/203/207
f 120/204/208 20/205/209 124/206/210
f 163/207/211 105/208/212 18/209/213
f 17/210/214 98/211/215 103/212/216
f 10/213/217 3/203/207 29/214/218
f 3/203/207 10/213/217 2/201/205
f 1/215/219 21/216/220 20/205/209
f 9/217/221 4/218/222 2/201/205
f 5/219/223 22/220/224 125/221/225
f 8/222/226 4/218/222 9/217/221
f 25/223/227 4/218/222 148/224/228
f 138/225/229 137/226/230 6/227/231
f 4/218/222 23/228/232 143/229/233
f 23/228/232 145/230/234 144/231/235
f 24/232/236 4/218/222 25/223/227
f 5/219/223 140/233/237 139/234/238
f 75/235/239 14/236/240 15/237/241
f 16/238/242 93/239/243 92/240/244 95/241/245
f 90/242/246 174/243/247 179/244/248
f 180/245/249 181/196/200 2/201/205
f 127/246/250 126/247/251 22/220/224
f 6/227/231 136/248/252 135/249/253
f 134/250/254 133/251/255 135/249/253
f 135/249/253 133/251/255 132/252/256
f 6/227/231 135/249/253 132/252/256
f 6/227/231 132/252/256 131/253/257
f 5/219/223 127/246/250 22/220/224
f 5/219/223 6/227/231 130/254/258
f 6/227/231 131/253/257 130/254/258
f 5/219/223 128/255/259 127/246/250
f 5/219/223 129/256/260 128/255/259
f 5/219/223 130/254/258 129/256/260
f 139/234/238 138/225/229 6/227/231
f 139/234/238 6/227/231 5/219/223
f 5/219/223 141/257/261 140/233/237
f 142/258/262 141/257/261 5/219/223
f 7/259/263 142/258/262 5/219/223
f 4/218/222 7/259/263 5/219/223
f 4/218/222 143/229/233 7/259/263
f 23/228/232 4/218/222 145/230/234
f 4/218/222 146/260/264 145/230/234
f 4/218/222 147/261/265 146/260/264
f 4/218/222 24/232/236 147/261/265
f 8/222/226 149/262/266 148/224/228
f 8/222/226 150/263/267 149/262/266
f 4/218/222 8/222/226 148/224/228
f 9/217/221 2/201/205 26/264/268
f 28/265/269 27/266/270 26/264/268
f 2/201/205 28/265/269 26/264/268
f 2/201/205 10/213/217 28/265/269
f 34/267/271 33/268/272 12/269/273
f 34/267/271 12/269/273 30/270/274
f 33/268/272 32/271/275 11/272/276
f 33/268/272 11/272/276 12/269/273
f 32/271/275 31/273/277 11/272/276
f 2/201/205 30/270/274 13/202/206
f 2/201/205 34/267/271 30/270/274
f 2/201/205 35/199/203 34/267/271
f 47/274/278 45/275/279 44/276/280
f 35/199/203 49/277/281 43/200/204
f 37/278/282 43/200/204 42/279/283
f 37/278/282 36/198/202 43/200/204
f 42/279/283 41/280/284 38/281/285
f 37/278/282 42/279/283 38/281/285
f 41/280/284 40/282/286 39/283/287
f 41/280/284 39/283/287 38/281/285
f 47/274/278 46/284/288 45/275/279
f 48/285/289 44/276/280 43/200/204
f 48/285/289 47/274/278 44/276/280
f 49/277/281 48/285/289 43/200/204
f 49/277/281 35/199/203 2/201/205
f 180/245/249 73/286/290 72/287/291
f 182/288/292 180/245/249 72/287/291
f 64/289/293 63/290/294 51/291/295
f 61/292/296 60/293/297 59/294/298
f 51/291/295 50/195/199 183/295/299
f 50/195/199 184/197/201 183/295/299
f 182/288/292 72/287/291 64/289/293
f 51/291/295 183/295/299 64/289/293
f 183/295/299 182/288/292 64/289/293
f 72/287/291 71/296/300 65/297/301
f 72/287/291 65/297/301 64/289/293
f 71/296/300 70/298/302 66/299/303
f 71/296/300 66/299/303 65/297/301
f 70/298/302 69/300/304 67/301/305
f 70/298/302 67/301/305 66/299/303
f 69/300/304 68/302/306 67/301/305
f 62/303/307 59/294/298 58/304/308
f 62/303/307 61/292/296 59/294/298
f 63/290/294 58/304/308 57/305/309
f 63/290/294 62/303/307 58/304/308
f 57/305/309 56/306/310 51/291/295
f 63/290/294 57/305/309 51/291/295
f 56/306/310 55/307/311 52/308/312
f 56/306/310 52/308/312 51/291/295
f 55/307/311 54/309/313 53/310/314
f 55/307/311 53/310/314 52/308/312
f 73/286/290 180/245/249 2/201/205
f 74/311/315 73/286/290 2/201/205
f 75/235/239 74/311/315 2/201/205
f 84/312/316 86/313/317 87/314/318
f 76/315/319 75/235/239 15/237/241
f 84/312/316 85/316/320 86/313/317
f 83/317/321 87/314/318 88/318/322
f 83/317/321 84/312/316 87/314/318
f 82/319/323 15/237/241 88/318/322
f 15/237/241 83/317/321 88/318/322
f 82/319/323 81/320/324 76/315/319
f 82/319/323 76/315/319 15/237/241
f 81/320/324 80/321/325 77/322/326
f 81/320/324 77/322/326 76/315/319
f 80/321/325 79/323/327 78/324/328
f 80/321/325 78/324/328 77/322/326
f 75/235/239 2/201/205 14/236/240
f 2/201/205 1/215/219 14/236/240
f 1/215/219 89/325/329 14/236/240
f 1/215/219 90/242/246 89/325/329
f 1/215/219 174/243/247 90/242/246
f 1/215/219 164/326/330 175/327/331 174/243/247
f 1/215/219 165/188/192 164/326/330
f 91/328/332 179/244/248 178/329/333
f 91/328/332 90/242/246 179/244/248
f 162/330/334 163/207/211 98/211/215
f 92/240/244 91/328/332 96/331/335
f 96/331/335 95/241/245 92/240/244
f 177/332/336 97/333/337 96/331/335
f 97/333/338 161/334/339 166/335/340
f 176/336/341 164/326/330 161/334/342
f 91/328/332 178/329/333 96/331/335
f 96/331/335 178/329/333 177/332/336
f 16/238/242 94/337/343 93/239/243
f 176/336/341 175/327/331 164/326/330
f 177/332/336 161/334/342 97/333/337
f 177/332/336 176/336/341 161/334/342
f 98/211/215 166/335/340 167/338/344
f 98/211/215 97/333/338 166/335/340
f 162/330/334 98/211/215 167/338/344
f 102/192/196 101/339/345 100/193/197
f 17/210/214 102/192/196 99/194/198
f 17/210/214 99/194/198 98/211/215
f 98/211/215 163/207/211 104/340/346
f 103/212/216 98/211/215 104/340/346
f 104/340/346 163/207/211 18/209/213
f 163/207/211 168/341/347 105/208/212
f 105/208/212 168/341/347 19/342/348
f 109/343/349 108/344/350 19/342/348
f 170/345/351 172/346/352 173/347/353
f 110/348/354 109/343/349 168/341/347
f 19/342/348 168/341/347 109/343/349
f 108/344/350 107/349/355 106/350/356
f 108/344/350 106/350/356 19/342/348
f 173/347/353 160/187/191 151/351/357
f 170/345/351 171/352/358 172/346/352
f 169/353/359 173/347/353 155/354/360
f 169/353/359 170/345/351 173/347/353
f 168/341/347 155/354/360 154/355/361
f 168/341/347 169/353/359 155/354/360
f 110/348/354 154/355/361 153/356/362
f 110/348/354 168/341/347 154/355/361
f 115/357/363 114/358/364 110/348/354
f 115/357/363 110/348/354 153/356/362
f 114/358/364 113/359/365 111/360/366
f 114/358/364 111/360/366 110/348/354
f 113/359/365 112/361/367 111/360/366
f 173/347/353 151/351/357 155/354/360
f 156/186/190 151/351/357 160/187/191
f 1/215/219 156/186/190 165/188/192
f 1/215/219 157/362/368 156/186/190
f 1/215/219 158/363/369 157/362/368
f 159/189/193 158/363/369 1/215/219 119/190/194
f 117/364/370 152/365/371 118/191/195
f 152/365/371 159/189/193 118/191/195
f 117/364/370 116/366/372 153/356/362
f 117/364/370 153/356/362 152/365/371
f 116/366/372 115/357/363 153/356/362
f 1/215/219 120/204/208 119/190/194
f 120/204/208 1/215/219 20/205/209
f 123/367/373 121/368/374 124/206/210
f 121/368/374 120/204/208 124/206/210
f 123/367/373 122/369/375 121/368/374
f 1/215/219 125/221/225 21/216/220
f 1/215/219 5/219/223 125/221/225
f 50/195/199 2/201/205 181/196/200
f 50/195/199 49/277/281 2/201/205
s 86
f 165/188/376 160/187/377 187/3/378 186/2/379
s 87
f 118/191/380 119/190/381 190/6/382 189/5/383
s 88
f 99/194/384 100/193/385 193/9/386 192/8/387
s 89
f 184/197/388 181/196/389 196/12/390 195/11/391
s 90
f 35/199/392 36/198/393 197/13/394 199/15/395
s 91
f 3/203/396 13/202/397 202/18/398 200/17/399
s off
f 124/206/400 20/205/401 205/21/402 204/20/403
s 92
f 18/209/404 105/208/405 208/24/406 207/23/407
f 17/210/408 103/212/409 210/26/410 209/25/411
s 94
f 10/213/412 29/214/413 213/29/414 212/28/415
s off
f 29/214/416 3/203/417 200/17/418 213/29/419
s 95
f 20/205/420 21/216/421 215/31/422 205/21/423
s off
f 2/201/424 4/218/425 217/33/426 201/16/427
s 96
f 125/221/428 22/220/429 220/36/430 218/35/431
s 97
f 8/222/432 9/217/433 216/32/434 221/37/435
s 98
f 25/223/436 148/224/437 223/39/438 222/38/439
s 99
f 6/227/440 137/226/441 226/42/442 225/41/443
s 100
f 137/226/444 138/225/445 224/40/446 226/42/447
s 101
f 143/229/448 23/228/449 228/44/450 227/43/451
f 23/228/449 144/231/452 229/45/453 228/44/450
s off
f 144/231/454 145/230/455 230/46/456 229/45/457
s 102
f 24/232/458 25/223/459 222/38/460 231/47/461
s off
f 139/234/462 140/233/463 233/49/464 232/48/465
f 15/237/466 14/236/467 236/52/468 235/51/469
s 103
f 16/238/470 95/241/471 238/54/472 237/53/473
s 104
f 92/240/474 93/239/475 240/56/476 239/55/477
s 105
f 179/244/478 174/243/479 243/59/480 242/58/481
s off
f 181/196/482 180/245/483 244/60/484 196/12/485
s 96
f 22/220/429 126/247/486 246/62/487 220/36/430
s off
f 126/247/488 127/246/489 245/61/490 246/62/491
f 135/249/492 136/248/493 248/64/494 247/63/495
s 99
f 136/248/496 6/227/440 225/41/443 248/64/497
s off
f 134/250/498 135/249/499 247/63/500 249/65/501
f 133/251/502 134/250/503 249/65/504 250/66/505
s 106
f 132/252/506 133/251/507 250/66/508 251/67/509
f 131/253/510 132/252/506 251/67/509 252/68/511
s off
f 130/254/512 131/253/513 252/68/514 253/69/515
s 107
f 127/246/516 128/255/517 254/70/518 245/61/519
f 128/255/517 129/256/520 255/71/521 254/70/518
f 129/256/520 130/254/522 253/69/523 255/71/521
s 100
f 138/225/445 139/234/524 232/48/525 224/40/446
s 101
f 140/233/526 141/257/527 256/72/528 233/49/529
f 141/257/527 142/258/530 257/73/531 256/72/528
f 142/258/530 7/259/532 258/74/533 257/73/531
s off
f 4/218/534 5/219/535 219/34/536 217/33/537
s 101
f 7/259/532 143/229/448 227/43/451 258/74/533
s 102
f 145/230/538 146/260/539 259/75/540 230/46/541
f 146/260/539 147/261/542 260/76/543 259/75/540
f 147/261/542 24/232/458 231/47/461 260/76/543
s 98
f 148/224/437 149/262/544 261/77/545 223/39/438
f 149/262/544 150/263/546 262/78/547 261/77/545
s 97
f 150/263/548 8/222/432 221/37/435 262/78/549
f 9/217/433 26/264/550 263/79/551 216/32/434
s off
f 26/264/552 27/266/553 265/81/554 263/79/555
s 94
f 27/266/556 28/265/557 264/80/558 265/81/559
f 28/265/557 10/213/412 212/28/415 264/80/558
s off
f 33/268/560 34/267/561 266/82/562 268/84/563
s 110
f 30/270/564 12/269/565 267/83/566 269/85/567
s 111
f 32/271/568 33/268/569 268/84/570 271/87/571
s 110
f 12/269/565 11/272/572 270/86/573 267/83/566
s off
f 11/272/574 31/273/575 272/88/576 270/86/577
s 111
f 31/273/578 32/271/568 271/87/571 272/88/579
s 91
f 13/202/397 30/270/580 269/85/581 202/18/398
s off
f 34/267/582 35/199/583 199/15/584 266/82/585
s 112
f 44/276/586 45/275/587 275/91/588 274/90/589
s 113
f 42/279/590 43/200/591 198/14/592 278/94/593
s 90
f 36/198/393 37/278/594 277/93/595 197/13/394
s 113
f 41/280/596 42/279/590 278/94/593 280/96/597
s 90
f 37/278/594 38/281/598 279/95/599 277/93/595
f 39/283/600 40/282/601 282/98/602 281/97/603
s off
f 40/282/604 41/280/605 280/96/606 282/98/607
s 90
f 38/281/598 39/283/600 281/97/603 279/95/599
s off
f 45/275/608 46/284/609 283/99/610 275/91/611
f 46/284/612 47/274/613 273/89/614 283/99/615
s 112
f 43/200/616 44/276/586 274/90/589 198/14/617
s off
f 47/274/618 48/285/619 284/100/620 273/89/621
f 48/285/622 49/277/623 276/92/624 284/100/625
f 72/287/626 73/286/627 286/102/628 285/101/629
f 180/245/630 182/288/631 287/103/632 244/60/633
f 63/290/634 64/289/635 288/104/636 290/106/637
f 59/294/638 60/293/639 293/109/640 292/108/641
f 60/293/642 61/292/643 291/107/644 293/109/645
f 50/195/646 51/291/647 289/105/648 194/10/649
s 89
f 183/295/650 184/197/388 195/11/391 294/110/651
s off
f 182/288/652 183/295/653 294/110/654 287/103/655
s 114
f 71/296/656 72/287/657 285/101/658 296/112/659
s 115
f 64/289/660 65/297/661 295/111/662 288/104/663
s 114
f 70/298/664 71/296/656 296/112/659 298/114/665
s 115
f 65/297/661 66/299/666 297/113/667 295/111/662
s 114
f 69/300/668 70/298/664 298/114/665 300/116/669
s 115
f 66/299/666 67/301/670 299/115/671 297/113/667
f 67/301/670 68/302/672 301/117/673 299/115/671
s off
f 68/302/674 69/300/675 300/116/676 301/117/677
s 116
f 58/304/678 59/294/679 292/108/680 303/119/681
s off
f 61/292/682 62/303/683 302/118/684 291/107/685
s 116
f 57/305/686 58/304/678 303/119/681 304/120/687
s off
f 62/303/688 63/290/689 290/106/690 302/118/691
s 116
f 56/306/692 57/305/686 304/120/687 305/121/693
f 55/307/694 56/306/692 305/121/693 307/123/695
s 117
f 51/291/696 52/308/697 306/122/698 289/105/699
f 53/310/700 54/309/701 309/125/702 308/124/703
s off
f 54/309/704 55/307/705 307/123/706 309/125/707
s 117
f 52/308/697 53/310/700 308/124/703 306/122/698
s 118
f 73/286/708 74/311/709 310/126/710 286/102/711
f 74/311/709 75/235/712 234/50/713 310/126/710
s off
f 87/314/714 86/313/715 313/129/716 312/128/717
f 75/235/718 76/315/719 314/130/720 234/50/721
f 86/313/722 85/316/723 315/131/724 313/129/725
s 119
f 85/316/726 84/312/727 311/127/728 315/131/729
s 120
f 88/318/730 87/314/731 312/128/732 317/133/733
s 119
f 84/312/727 83/317/734 316/132/735 311/127/728
s 120
f 82/319/736 88/318/730 317/133/733 318/134/737
s 119
f 83/317/734 15/237/738 235/51/739 316/132/735
s 120
f 81/320/740 82/319/736 318/134/737 319/135/741
s 121
f 80/321/742 81/320/743 319/135/744 321/137/745
s off
f 76/315/746 77/322/747 320/136/748 314/130/749
s 122
f 78/324/750 79/323/751 323/139/752 322/138/753
s 121
f 79/323/754 80/321/742 321/137/745 323/139/755
s 122
f 77/322/756 78/324/750 322/138/753 320/136/757
s off
f 1/215/758 2/201/759 201/16/760 214/30/761
s 123
f 14/236/762 89/325/763 324/140/764 236/52/765
f 89/325/763 90/242/766 241/57/767 324/140/764
s off
f 174/243/768 175/327/769 325/141/770 243/59/771
f 164/326/772 165/188/773 186/2/774 326/142/775
s 105
f 178/329/776 179/244/478 242/58/481 328/144/777
s off
f 90/242/778 91/328/779 327/143/780 241/57/781
s 124
f 163/207/782 162/330/783 329/145/784 206/22/785
s 104
f 91/328/786 92/240/474 239/55/477 327/143/787
s 103
f 95/241/471 96/331/788 330/146/789 238/54/472
f 96/331/788 97/333/790 332/148/791 330/146/789
s 124
f 166/335/792 161/334/793 334/150/794 333/149/795
s off
f 161/334/796 164/326/797 326/142/798 334/150/799
f 177/332/800 178/329/801 328/144/802 331/147/803
f 97/333/804 161/334/805 336/152/806 332/148/807
f 161/334/808 334/150/809 336/152/810
f 93/239/811 94/337/812 337/153/813 240/56/814
f 94/337/815 16/238/816 237/53/817 337/153/818
s 126
f 175/327/819 176/336/820 335/151/821 325/141/822
f 176/336/820 177/332/823 331/147/824 335/151/821
s 124
f 167/338/825 166/335/792 333/149/795 338/154/826
s off
f 97/333/827 98/211/828 211/27/829 332/148/830
s 124
f 162/330/783 167/338/825 338/154/826 329/145/784
s off
f 100/193/831 101/339/832 339/155/833 193/9/834
f 101/339/835 102/192/836 191/7/837 339/155/838
s 92
f 102/192/839 17/210/408 209/25/411 191/7/840
s 88
f 98/211/841 99/194/384 192/8/387 211/27/842
s 92
f 103/212/409 104/340/843 340/156/844 210/26/410
f 104/340/843 18/209/404 207/23/407 340/156/844
s off
f 168/341/845 163/207/846 206/22/847 341/157/848
s 92
f 105/208/405 19/342/849 342/158/850 208/24/406
s off
f 108/344/851 109/343/852 343/159/853 344/160/854
f 173/347/855 172/346/856 347/163/857 346/162/858
f 109/343/859 110/348/860 348/164/861 343/159/862
s 92
f 106/350/863 107/349/864 350/166/865 349/165/866
s off
f 107/349/867 108/344/868 344/160/869 350/166/870
s 92
f 19/342/849 106/350/863 349/165/866 342/158/850
s 86
f 160/187/377 173/347/871 346/162/872 187/3/378
s off
f 172/346/873 171/352/874 352/168/875 347/163/876
s 127
f 171/352/877 170/345/878 345/161/879 352/168/880
f 170/345/878 169/353/881 353/169/882 345/161/879
s 128
f 154/355/883 155/354/884 354/170/885 355/171/886
s 127
f 169/353/881 168/341/887 341/157/888 353/169/882
s 128
f 153/356/889 154/355/883 355/171/886 356/172/890
s 129
f 114/358/891 115/357/892 357/173/893 358/174/894
f 113/359/895 114/358/891 358/174/894 360/176/896
s 130
f 110/348/897 111/360/898 359/175/899 348/164/900
f 111/360/898 112/361/901 361/177/902 359/175/899
f 112/361/901 113/359/903 360/176/904 361/177/902
s 131
f 155/354/905 151/351/906 351/167/907 354/170/908
f 151/351/906 156/186/909 185/1/910 351/167/907
s off
f 156/186/911 157/362/912 362/178/913 185/1/914
f 157/362/915 158/363/916 363/179/917 362/178/918
f 158/363/919 159/189/920 188/4/921 363/179/922
s 87
f 117/364/923 118/191/380 189/5/383 364/180/924
s 132
f 159/189/925 152/365/926 365/181/927 188/4/928
s 87
f 116/366/929 117/364/923 364/180/924 366/182/930
s 132
f 152/365/926 153/356/931 356/172/932 365/181/927
s 87
f 115/357/933 116/366/929 366/182/930 357/173/934
s off
f 119/190/935 120/204/936 203/19/937 190/6/938
s 133
f 123/367/939 124/206/940 204/20/941 367/183/942
f 120/204/943 121/368/944 368/184/945 203/19/946
f 121/368/944 122/369/947 369/185/948 368/184/945
f 122/369/947 123/367/939 367/183/942 369/185/948
s 95
f 21/216/421 125/221/949 218/35/950 215/31/422
s off
f 5/219/951 1/215/952 214/30/953 219/34/954
f 49/277/955 50/195/956 194/10/957 276/92/958
